<svg xmlns="http://www.w3.org/2000/svg" viewBox="0 0 512 512" role="img" aria-label="DigitalQatalyst favicon"><title>DigitalQatalyst</title><rect width="512" height="512" rx="96" fill="#030F35"/><svg x="96.0" y="131.2" width="320" height="249.6" viewBox="0 0 250 195"><path fill="#FFFFFF" fill-rule="evenodd" d="M164.0,192.03 L152.25,192.06 L145.0,191.25 L137.0,189.71 L127.5,186.56 L115.25,180.63 L114.0,180.88 L105.34,184.75 L96.25,187.61 L86.75,189.55 L80.5,190.22 L63.0,190.85 L4.5,190.91 L2.93,190.5 L2.43,188.5 L2.45,6.0 L2.53,4.75 L3.0,3.89 L3.75,3.53 L5.75,3.45 L54.0,3.4 L75.5,3.54 L81.75,3.96 L90.0,5.22 L98.0,7.09 L104.5,9.16 L115.25,13.77 L116.25,13.56 L123.0,10.01 L130.0,7.04 L140.0,4.06 L145.0,3.09 L152.75,2.21 L164.75,2.2 L169.75,2.73 L178.0,4.16 L184.32,6.0 L192.25,9.12 L197.91,12.0 L205.75,16.92 L212.25,21.9 L217.95,27.0 L222.5,31.83 L228.71,39.75 L232.64,45.75 L237.57,55.0 L240.51,62.0 L242.73,68.5 L244.96,77.25 L246.87,89.75 L247.15,97.0 L246.86,105.5 L245.41,115.5 L243.57,123.5 L240.66,132.5 L236.63,141.75 L232.75,148.75 L228.5,155.22 L223.37,161.75 L223.09,162.75 L223.65,163.75 L246.15,189.5 L246.49,190.5 L245.0,190.92 L219.75,190.82 L218.0,189.51 L207.75,177.93 L206.5,177.34 L195.25,183.57 L185.75,187.6 L175.0,190.55 L164.0,192.03Z M164.07,165.75 L171.0,164.66 L178.0,162.53 L185.75,158.69 L187.99,157.25 L188.52,156.25 L188.0,155.25 L163.97,127.5 L163.5,126.75 L163.59,126.25 L164.5,125.95 L170.5,125.92 L190.5,126.13 L191.75,127.09 L203.0,140.11 L204.25,140.37 L206.75,136.75 L209.66,131.5 L212.56,124.75 L214.52,118.75 L216.59,108.5 L217.28,95.5 L216.89,88.5 L215.69,80.75 L214.58,76.0 L211.75,67.59 L209.6,62.75 L206.59,57.25 L202.75,51.48 L199.32,47.25 L194.37,42.25 L190.5,39.07 L184.5,35.12 L178.75,32.21 L173.0,30.16 L168.5,29.14 L157.0,28.24 L145.75,29.64 L140.0,31.3 L138.95,32.25 L139.24,33.25 L145.5,41.63 L148.52,46.75 L152.75,55.74 L155.62,63.75 L157.75,71.92 L158.87,78.0 L160.07,89.25 L160.22,98.25 L159.73,109.75 L158.88,116.5 L157.75,122.63 L155.6,130.75 L152.68,138.75 L148.62,147.25 L144.57,154.0 L139.25,161.0 L138.92,162.0 L139.5,162.77 L141.75,163.59 L149.25,165.31 L156.25,165.89 L164.07,165.75Z M73.28,165.0 L79.25,164.55 L84.5,163.61 L91.0,161.77 L91.9,160.75 L91.51,159.75 L86.12,152.5 L82.05,145.75 L79.11,140.0 L75.09,130.0 L73.03,123.25 L71.09,114.5 L70.14,108.25 L69.65,97.25 L69.86,89.5 L71.11,79.5 L73.18,70.5 L75.17,64.25 L79.17,54.5 L82.02,49.0 L86.39,41.75 L91.94,34.25 L92.1,33.25 L91.0,32.52 L86.25,31.15 L76.5,29.42 L68.0,28.99 L32.5,29.02 L31.75,29.75 L31.58,31.0 L31.71,164.25 L32.25,164.98 L33.25,165.22 L73.28,165.0Z M115.88,144.25 L119.7,139.0 L122.57,134.0 L124.68,129.5 L126.75,123.9 L128.45,117.75 L129.91,109.75 L130.46,104.75 L130.67,96.0 L130.43,88.75 L129.56,81.75 L128.5,76.34 L126.72,70.0 L124.67,64.5 L121.5,58.01 L117.67,52.0 L116.25,50.29 L115.5,49.91 L114.21,50.75 L109.11,58.5 L106.22,64.25 L103.19,72.0 L101.33,78.75 L100.03,85.5 L99.3,97.25 L99.6,105.0 L100.45,111.25 L102.1,118.75 L104.18,125.25 L107.08,132.0 L110.2,137.75 L114.25,143.76 L115.0,144.4 L115.88,144.25Z"/></svg></svg>